<svg width="144" height="144" viewBox="0 0 144 144" fill="none" xmlns="http://www.w3.org/2000/svg">
<circle cx="3.06383" cy="3.06383" r="3.06383" fill="#053AFA" fill-opacity="0.1"/>
<circle cx="3.06383" cy="79.6595" r="3.06383" fill="#053AFA" fill-opacity="0.1"/>
<circle cx="79.6595" cy="3.06383" r="3.06383" fill="#053AFA" fill-opacity="0.1"/>
<circle cx="79.6595" cy="79.6595" r="3.06383" fill="#053AFA" fill-opacity="0.1"/>
<circle cx="3.06383" cy="18.3832" r="3.06383" fill="#053AFA" fill-opacity="0.1"/>
<circle cx="3.06383" cy="94.9789" r="3.06383" fill="#053AFA" fill-opacity="0.1"/>
<circle cx="79.6595" cy="18.3832" r="3.06383" fill="#053AFA" fill-opacity="0.1"/>
<circle cx="79.6595" cy="94.9789" r="3.06383" fill="#053AFA" fill-opacity="0.1"/>
<circle cx="3.06383" cy="33.7025" r="3.06383" fill="#053AFA" fill-opacity="0.1"/>
<circle cx="3.06383" cy="110.298" r="3.06383" fill="#053AFA" fill-opacity="0.1"/>
<circle cx="79.6595" cy="33.7025" r="3.06383" fill="#053AFA" fill-opacity="0.1"/>
<circle cx="79.6595" cy="110.298" r="3.06383" fill="#053AFA" fill-opacity="0.1"/>
<circle cx="3.06383" cy="49.0209" r="3.06383" fill="#053AFA" fill-opacity="0.1"/>
<circle cx="3.06383" cy="125.617" r="3.06383" fill="#053AFA" fill-opacity="0.1"/>
<circle cx="79.6595" cy="49.0209" r="3.06383" fill="#053AFA" fill-opacity="0.1"/>
<circle cx="79.6595" cy="125.617" r="3.06383" fill="#053AFA" fill-opacity="0.1"/>
<circle cx="3.06383" cy="64.3402" r="3.06383" fill="#053AFA" fill-opacity="0.1"/>
<circle cx="3.06383" cy="140.936" r="3.06383" fill="#053AFA" fill-opacity="0.1"/>
<circle cx="79.6595" cy="64.3402" r="3.06383" fill="#053AFA" fill-opacity="0.1"/>
<circle cx="79.6595" cy="140.936" r="3.06383" fill="#053AFA" fill-opacity="0.1"/>
<circle cx="18.3832" cy="3.06383" r="3.06383" fill="#053AFA" fill-opacity="0.1"/>
<circle cx="18.3832" cy="79.6595" r="3.06383" fill="#053AFA" fill-opacity="0.1"/>
<circle cx="94.9789" cy="3.06383" r="3.06383" fill="#053AFA" fill-opacity="0.1"/>
<circle cx="94.9789" cy="79.6595" r="3.06383" fill="#053AFA" fill-opacity="0.1"/>
<circle cx="18.3832" cy="18.3832" r="3.06383" fill="#053AFA" fill-opacity="0.1"/>
<circle cx="18.3832" cy="94.9789" r="3.06383" fill="#053AFA" fill-opacity="0.1"/>
<circle cx="94.9789" cy="18.3832" r="3.06383" fill="#053AFA" fill-opacity="0.1"/>
<circle cx="94.9789" cy="94.9789" r="3.06383" fill="#053AFA" fill-opacity="0.1"/>
<circle cx="18.3832" cy="33.7025" r="3.06383" fill="#053AFA" fill-opacity="0.1"/>
<circle cx="18.3832" cy="110.298" r="3.06383" fill="#053AFA" fill-opacity="0.1"/>
<circle cx="94.9789" cy="33.7025" r="3.06383" fill="#053AFA" fill-opacity="0.1"/>
<circle cx="94.9789" cy="110.298" r="3.06383" fill="#053AFA" fill-opacity="0.1"/>
<circle cx="18.3832" cy="49.0209" r="3.06383" fill="#053AFA" fill-opacity="0.1"/>
<circle cx="18.3832" cy="125.617" r="3.06383" fill="#053AFA" fill-opacity="0.1"/>
<circle cx="94.9789" cy="49.0209" r="3.06383" fill="#053AFA" fill-opacity="0.1"/>
<circle cx="94.9789" cy="125.617" r="3.06383" fill="#053AFA" fill-opacity="0.1"/>
<circle cx="18.3832" cy="64.3402" r="3.06383" fill="#053AFA" fill-opacity="0.1"/>
<circle cx="18.3832" cy="140.936" r="3.06383" fill="#053AFA" fill-opacity="0.1"/>
<circle cx="94.9789" cy="64.3402" r="3.06383" fill="#053AFA" fill-opacity="0.1"/>
<circle cx="94.9789" cy="140.936" r="3.06383" fill="#053AFA" fill-opacity="0.1"/>
<circle cx="33.7025" cy="3.06383" r="3.06383" fill="#053AFA" fill-opacity="0.1"/>
<circle cx="33.7025" cy="79.6595" r="3.06383" fill="#053AFA" fill-opacity="0.1"/>
<circle cx="110.298" cy="3.06383" r="3.06383" fill="#053AFA" fill-opacity="0.1"/>
<circle cx="110.298" cy="79.6595" r="3.06383" fill="#053AFA" fill-opacity="0.1"/>
<circle cx="33.7025" cy="18.3832" r="3.06383" fill="#053AFA" fill-opacity="0.1"/>
<circle cx="33.7025" cy="94.9789" r="3.06383" fill="#053AFA" fill-opacity="0.1"/>
<circle cx="110.298" cy="18.3832" r="3.06383" fill="#053AFA" fill-opacity="0.1"/>
<circle cx="110.298" cy="94.9789" r="3.06383" fill="#053AFA" fill-opacity="0.1"/>
<circle cx="33.7025" cy="33.7025" r="3.06383" fill="#053AFA" fill-opacity="0.1"/>
<circle cx="33.7025" cy="110.298" r="3.06383" fill="#053AFA" fill-opacity="0.1"/>
<circle cx="110.298" cy="33.7025" r="3.06383" fill="#053AFA" fill-opacity="0.1"/>
<circle cx="110.298" cy="110.298" r="3.06383" fill="#053AFA" fill-opacity="0.1"/>
<circle cx="33.7025" cy="49.0209" r="3.06383" fill="#053AFA" fill-opacity="0.1"/>
<circle cx="33.7025" cy="125.617" r="3.06383" fill="#053AFA" fill-opacity="0.1"/>
<circle cx="110.298" cy="49.0209" r="3.06383" fill="#053AFA" fill-opacity="0.1"/>
<circle cx="110.298" cy="125.617" r="3.06383" fill="#053AFA" fill-opacity="0.1"/>
<circle cx="33.7025" cy="64.3402" r="3.06383" fill="#053AFA" fill-opacity="0.1"/>
<circle cx="33.7025" cy="140.936" r="3.06383" fill="#053AFA" fill-opacity="0.1"/>
<circle cx="110.298" cy="64.3402" r="3.06383" fill="#053AFA" fill-opacity="0.1"/>
<circle cx="110.298" cy="140.936" r="3.06383" fill="#053AFA" fill-opacity="0.1"/>
<circle cx="49.0209" cy="3.06383" r="3.06383" fill="#053AFA" fill-opacity="0.1"/>
<circle cx="49.0209" cy="79.6595" r="3.06383" fill="#053AFA" fill-opacity="0.1"/>
<circle cx="125.617" cy="3.06383" r="3.06383" fill="#053AFA" fill-opacity="0.1"/>
<circle cx="125.617" cy="79.6595" r="3.06383" fill="#053AFA" fill-opacity="0.1"/>
<circle cx="49.0209" cy="18.3832" r="3.06383" fill="#053AFA" fill-opacity="0.1"/>
<circle cx="49.0209" cy="94.9789" r="3.06383" fill="#053AFA" fill-opacity="0.1"/>
<circle cx="125.617" cy="18.3832" r="3.06383" fill="#053AFA" fill-opacity="0.1"/>
<circle cx="125.617" cy="94.9789" r="3.06383" fill="#053AFA" fill-opacity="0.1"/>
<circle cx="49.0209" cy="33.7025" r="3.06383" fill="#053AFA" fill-opacity="0.1"/>
<circle cx="49.0209" cy="110.298" r="3.06383" fill="#053AFA" fill-opacity="0.1"/>
<circle cx="125.617" cy="33.7025" r="3.06383" fill="#053AFA" fill-opacity="0.1"/>
<circle cx="125.617" cy="110.298" r="3.06383" fill="#053AFA" fill-opacity="0.1"/>
<circle cx="49.0209" cy="49.0209" r="3.06383" fill="#053AFA" fill-opacity="0.1"/>
<circle cx="49.0209" cy="125.617" r="3.06383" fill="#053AFA" fill-opacity="0.1"/>
<circle cx="125.617" cy="49.0209" r="3.06383" fill="#053AFA" fill-opacity="0.1"/>
<circle cx="125.617" cy="125.617" r="3.06383" fill="#053AFA" fill-opacity="0.1"/>
<circle cx="49.0209" cy="64.3402" r="3.06383" fill="#053AFA" fill-opacity="0.1"/>
<circle cx="49.0209" cy="140.936" r="3.06383" fill="#053AFA" fill-opacity="0.1"/>
<circle cx="125.617" cy="64.3402" r="3.06383" fill="#053AFA" fill-opacity="0.1"/>
<circle cx="125.617" cy="140.936" r="3.06383" fill="#053AFA" fill-opacity="0.1"/>
<circle cx="64.3402" cy="3.06383" r="3.06383" fill="#053AFA" fill-opacity="0.1"/>
<circle cx="64.3402" cy="79.6595" r="3.06383" fill="#053AFA" fill-opacity="0.1"/>
<circle cx="140.936" cy="3.06383" r="3.06383" fill="#053AFA" fill-opacity="0.1"/>
<circle cx="140.936" cy="79.6595" r="3.06383" fill="#053AFA" fill-opacity="0.1"/>
<circle cx="64.3402" cy="18.3832" r="3.06383" fill="#053AFA" fill-opacity="0.1"/>
<circle cx="64.3402" cy="94.9789" r="3.06383" fill="#053AFA" fill-opacity="0.1"/>
<circle cx="140.936" cy="18.3832" r="3.06383" fill="#053AFA" fill-opacity="0.1"/>
<circle cx="140.936" cy="94.9789" r="3.06383" fill="#053AFA" fill-opacity="0.1"/>
<circle cx="64.3402" cy="33.7025" r="3.06383" fill="#053AFA" fill-opacity="0.1"/>
<circle cx="64.3402" cy="110.298" r="3.06383" fill="#053AFA" fill-opacity="0.1"/>
<circle cx="140.936" cy="33.7025" r="3.06383" fill="#053AFA" fill-opacity="0.1"/>
<circle cx="140.936" cy="110.298" r="3.06383" fill="#053AFA" fill-opacity="0.1"/>
<circle cx="64.3402" cy="49.0209" r="3.06383" fill="#053AFA" fill-opacity="0.1"/>
<circle cx="64.3402" cy="125.617" r="3.06383" fill="#053AFA" fill-opacity="0.1"/>
<circle cx="140.936" cy="49.0209" r="3.06383" fill="#053AFA" fill-opacity="0.1"/>
<circle cx="140.936" cy="125.617" r="3.06383" fill="#053AFA" fill-opacity="0.1"/>
<circle cx="64.3402" cy="64.3402" r="3.06383" fill="#053AFA" fill-opacity="0.1"/>
<circle cx="64.3402" cy="140.936" r="3.06383" fill="#053AFA" fill-opacity="0.1"/>
<circle cx="140.936" cy="64.3402" r="3.06383" fill="#053AFA" fill-opacity="0.1"/>
<circle cx="140.936" cy="140.936" r="3.06383" fill="#053AFA" fill-opacity="0.1"/>
</svg>
