<svg width="16" height="18" viewBox="0 0 16 18" fill="none" xmlns="http://www.w3.org/2000/svg">
<path d="M2.3996 12.5867C2.36042 12.6321 2.33887 12.69 2.33887 12.75V15C2.33887 15.1381 2.4508 15.25 2.58887 15.25H4.53065C4.60333 15.25 4.67242 15.2184 4.71991 15.1633L10.5453 8.41334C10.6262 8.3195 10.6262 8.1805 10.5453 8.08666L8.60347 5.83666C8.55598 5.78163 8.4869 5.75 8.41421 5.75C8.34152 5.75 8.27244 5.78163 8.22495 5.83666L2.3996 12.5867Z" fill="#053AFA" stroke="#053AFA" stroke-width="0.5" stroke-linecap="round" stroke-linejoin="round"/>
<path d="M9.51972 4.33666C9.43874 4.4305 9.43874 4.5695 9.51972 4.66334L11.4615 6.91334C11.509 6.96837 11.5781 7 11.6508 7C11.7235 7 11.7925 6.96837 11.84 6.91334L13.4582 5.03834C13.5392 4.9445 13.5392 4.8055 13.4582 4.71166L11.5164 2.46166C11.4689 2.40663 11.3998 2.375 11.3271 2.375C11.2544 2.375 11.1854 2.40663 11.1379 2.46166L9.51972 4.33666Z" fill="#053AFA" stroke="#053AFA" stroke-width="0.5" stroke-linecap="round" stroke-linejoin="round"/>
</svg>
