<svg width="152" height="39" viewBox="0 0 152 39" fill="none" xmlns="http://www.w3.org/2000/svg">
<path d="M6.75586 18.4343C6.75586 18.4343 6.83868 18.4343 7.00432 18.4343C8.08097 18.4343 12.1805 18.1859 11.5801 14.3762C9.69594 2.45026 19.8413 4.33439 21.6219 6.21852C23.154 4.91412 24.769 3.71325 24.769 3.71325C24.769 3.71325 20.7316 0.110617 15.3483 1.20797C9.9651 2.30532 8.6814 6.34275 8.6814 9.71763C8.6814 12.1608 10.1307 14.0863 9.50959 15.867C9.28184 16.5502 9.03338 17.6683 6.75586 18.4343Z" fill="#053AFA" stroke="#053AFA" stroke-width="0.5" stroke-miterlimit="10"/>
<path d="M23.7539 15.6187L23.1328 12.4094C23.1328 12.4094 23.3606 6.83984 17.8738 6.83984C15.3685 6.83984 13.4844 8.76539 13.4844 10.6081C13.4844 12.0574 13.9399 13.3618 14.3126 14.6455C14.4782 15.2253 15.0993 15.7429 15.7412 16.1363L17.6253 17.0266C17.6253 17.0266 17.6253 17.0266 17.6253 17.0059L22.2839 18.7451C22.2839 18.7451 21.8284 15.3495 20.8139 14.687C19.7993 14.0244 19.4348 14.1833 19 13.5C18.5652 12.8167 18.6399 11.2293 19.261 11.0222C19.8822 10.8152 20.8967 11.25 21.6628 12.2438C22.4288 13.2376 22.2839 14.9975 22.2839 14.9975L23.7539 15.6187Z" fill="#053AFA" stroke="#053AFA" stroke-width="0.5" stroke-miterlimit="10"/>
<path d="M30.0074 36.0332L29.9453 35.909C29.9246 35.8883 29.9246 35.8469 29.9039 35.8262C29.8625 35.7641 29.821 35.6605 29.7589 35.557C29.614 35.2878 29.3862 34.8323 29.0757 34.294L29.055 34.2526C28.7858 33.7557 28.4338 33.1553 28.0611 32.5341C27.8541 32.1821 27.647 31.8509 27.4607 31.561V31.5403C27.2537 31.209 27.0466 30.8777 26.8396 30.5672C26.7774 30.4636 26.6946 30.3601 26.6325 30.2566C26.4876 30.0288 26.3426 29.8011 26.177 29.5733C26.0735 29.4284 25.97 29.2628 25.8664 29.1178C25.7629 28.9522 25.6387 28.7865 25.5145 28.6209C25.1418 28.0826 24.7484 27.5443 24.3136 26.9645C23.9616 26.509 23.651 26.1156 23.4026 25.8258C23.3405 25.7429 23.2783 25.6601 23.2162 25.6187C23.1955 25.5773 23.1541 25.5566 23.1334 25.5359L23.092 25.4738L23.0506 25.4324C22.7193 25.0597 22.3259 24.7698 21.8911 24.5421C21.4977 24.335 21.1043 24.1694 20.7109 24.0037L20.5867 23.9623C20.2554 23.8174 19.9242 23.6932 19.6136 23.5482C18.9717 23.2998 18.4127 22.9064 17.9365 22.4095C17.7502 22.1817 17.6052 21.9333 17.5017 21.6641C17.3982 21.3949 17.3361 21.1051 17.3154 20.8152C17.2947 20.5461 17.274 20.2355 17.274 19.8628C17.274 19.6557 17.274 19.4487 17.274 19.2416C17.274 19.1381 17.274 19.0346 17.274 18.9518C17.274 18.4963 17.2947 18.0615 17.3154 17.6474C17.3154 17.5232 17.3361 17.3989 17.3361 17.2747C17.3361 17.2126 17.3361 17.1298 17.3361 17.0676L15.5555 16.2188C15.5762 16.5707 15.5969 16.9641 15.6383 17.3161C15.6797 17.7923 15.7418 18.3306 15.8246 19.0346L15.9281 19.4694L15.9903 19.9456C16.0317 20.1941 16.0524 20.4632 16.0731 20.7324C16.0731 20.7945 16.0938 20.8566 16.0938 20.9187C16.1145 21.1051 16.1352 21.2914 16.1766 21.4778C16.218 21.6641 16.2801 21.8712 16.3422 22.0575C16.4872 22.4509 16.7149 22.8029 16.9841 23.1341C17.274 23.4654 17.5845 23.7346 17.9572 23.983C18.3092 24.2108 18.6819 24.4178 19.0753 24.5835C19.3651 24.7077 19.655 24.8319 19.9449 24.9562C20.4004 25.1218 20.8352 25.3289 21.27 25.5566C21.5805 25.7222 21.8497 25.9293 22.0982 26.1985C22.3052 26.4469 22.4294 26.7368 22.4916 27.0473C22.5537 27.3993 22.5537 27.7513 22.4916 28.1033C22.4501 28.4967 22.3673 28.8694 22.2431 29.2213C21.9532 29.9874 21.5805 30.7121 21.1043 31.3953C20.6281 32.0993 20.0484 32.7619 19.4272 33.3416C18.8061 33.942 18.1228 34.4597 17.3775 34.8738C16.6321 35.2878 15.8246 35.6191 14.9964 35.8676C14.1682 36.0953 13.3193 36.2403 12.4704 36.2817C12.2841 36.2817 12.1185 36.3024 11.9321 36.3024C10.4621 36.3024 8.99204 35.9918 7.66694 35.3707L7.39777 35.2464L7.14932 35.1015C7.0872 35.0601 7.02509 35.0187 6.96297 34.998C6.94227 34.9773 6.92157 34.9773 6.90086 34.9566L6.77663 34.8945H6.75593L6.69381 34.853L6.40395 34.6253L6.17619 34.4597C6.13478 34.439 6.09337 34.3975 6.05196 34.3768C6.01055 34.3561 5.98985 34.3147 5.94844 34.294C5.88633 34.2526 5.80351 34.1905 5.72069 34.1077C5.16166 33.6315 4.66475 33.1138 4.22994 32.5134C3.62951 31.6852 3.174 30.7742 2.84272 29.8011C2.7392 29.5112 2.67709 29.2006 2.61497 28.9108V28.7037L2.57356 28.4553C2.57356 28.3725 2.57356 28.2689 2.55286 28.1861C2.55286 28.1447 2.53215 28.0826 2.53215 28.0412C2.51145 27.7513 2.51145 27.4821 2.53215 27.1923C2.55286 26.654 2.63568 26.1363 2.7392 25.6187C2.84272 25.1632 2.98766 24.7077 3.1533 24.2729C3.29823 23.9002 3.48457 23.5275 3.67091 23.1756C3.96078 22.6786 4.27135 22.1817 4.62334 21.7262C4.74756 21.5813 4.85109 21.4571 4.9132 21.3742L5.01673 21.2707C5.18236 21.1051 5.18236 20.8359 5.01673 20.691C4.83038 20.5253 4.54052 20.5253 4.35417 20.691L4.20924 20.8152L4.16783 20.8566C4.08501 20.9394 3.98149 21.043 3.85726 21.1672C3.42246 21.6227 3.00836 22.1196 2.65638 22.6579C2.09735 23.4861 1.68326 24.3971 1.39339 25.3496C1.20705 25.9293 1.10352 26.5504 1.04141 27.1509C1.0207 27.4821 1 27.8134 1 28.1447C1 28.331 1 28.4967 1.0207 28.683L1.04141 28.9315V29.2006C1.10352 29.5733 1.18634 29.9253 1.28987 30.2773C1.39339 30.6293 1.51762 31.002 1.66255 31.3539C1.95242 32.0993 2.34581 32.8033 2.80131 33.4658C3.29823 34.1491 3.85726 34.7909 4.51981 35.3293C4.60263 35.3914 4.66475 35.4535 4.74756 35.5156L4.78897 35.5363C4.87179 35.5984 4.95461 35.6812 5.05814 35.7434L5.36871 35.9504L5.63787 36.1367L5.69998 36.1782H5.74139L5.80351 36.2403L5.94844 36.3231C5.96914 36.3231 5.98985 36.3438 5.98985 36.3438H6.01056C6.09337 36.3852 6.17619 36.4266 6.25901 36.4887L6.56958 36.6544L6.88016 36.7993C8.35019 37.4618 9.94446 37.8138 11.5594 37.8138C11.8907 37.8138 12.222 37.7931 12.5326 37.7724C14.4995 37.6068 16.4044 37.0063 18.1021 36.0125C18.9303 35.5156 19.6964 34.9152 20.3797 34.2319C21.0422 33.5693 21.6634 32.8447 22.181 32.0786C22.6986 31.3125 23.1127 30.4843 23.4026 29.6147C23.5061 29.3042 23.5889 28.9936 23.6303 28.683C23.796 28.9315 23.9823 29.2006 24.1479 29.4698L24.1686 29.4905C24.3757 29.7804 24.5827 30.0909 24.7898 30.4015C24.9968 30.6914 25.2246 31.002 25.473 31.3746C25.6801 31.6852 25.9285 31.9958 26.177 32.3271C26.2391 32.4099 26.3219 32.5134 26.3841 32.5962L26.4048 32.6376C26.5704 32.8447 26.7153 33.0517 26.881 33.2588C27.2744 33.7557 27.6678 34.2733 28.1647 34.853C28.5581 35.3293 28.8893 35.7019 29.1171 35.9504C29.1792 36.0125 29.2206 36.0539 29.262 36.116C29.3034 36.1782 29.3655 36.2196 29.3862 36.261L29.4898 36.3645C29.5519 36.4266 29.614 36.4473 29.6968 36.4473C29.7382 36.4473 29.7796 36.4473 29.8003 36.4266C29.8625 36.4059 29.9246 36.3438 29.9453 36.2817C30.0488 36.1574 30.0488 36.0953 30.0074 36.0332Z" fill="#053AFA" stroke="#053AFA" stroke-width="0.5" stroke-miterlimit="10"/>
<path d="M46.8195 10.7314H42.1816V31.8503H46.8195V10.7314Z" fill="#081A32"/>
<path d="M70.8369 15.3691C68.6422 15.3691 66.9444 16.2801 65.5365 17.9365C64.6876 16.3009 63.0933 15.3691 60.9814 15.3691C58.6625 15.3691 57.2753 16.6114 56.2193 17.9572V15.659H51.6436V31.8294H56.2193V22.8022C56.2193 20.6282 57.2753 19.5101 58.9937 19.5101C60.7122 19.5101 61.6854 20.6282 61.6854 22.8022V31.8294H66.2611V22.8022C66.2611 20.6282 67.3171 19.5101 69.0356 19.5101C70.7541 19.5101 71.7272 20.6282 71.7272 22.8022V31.8294H76.3029V21.3114C76.3029 17.4189 74.2532 15.3691 70.8369 15.3691Z" fill="#081A32"/>
<path d="M96.2623 15.4932C93.5086 15.4932 91.7694 16.0108 89.9888 16.7976L91.1275 20.2967C92.5976 19.7584 93.8399 19.4271 95.5998 19.4271C97.898 19.4271 99.0782 20.483 99.0782 22.3879V22.657C97.9394 22.2636 96.7592 21.9945 95.1236 21.9945C91.2932 21.9945 88.6016 23.6301 88.6016 27.15V27.2121C88.6016 30.4006 91.1068 32.1605 94.1504 32.1605C96.3866 32.1605 97.9187 31.353 99.0368 30.1107V31.8706H103.468V22.4914C103.468 18.102 101.273 15.4932 96.2623 15.4932ZM99.1196 26.1561C99.1196 27.8125 97.6703 28.9927 95.5377 28.9927C94.0676 28.9927 93.0324 28.268 93.0324 27.0257V26.9636C93.0324 25.5143 94.2333 24.7275 96.2002 24.7275C97.3183 24.7275 98.3328 24.976 99.1196 25.3279V26.1561Z" fill="#081A32"/>
<path d="M117.05 15.3692C114.669 15.3692 113.137 16.4872 112.019 17.9987V9.82031H107.443V31.8502H112.019V29.7383C113.096 31.0427 114.607 32.1608 117.05 32.1608C120.881 32.1608 124.421 29.2 124.421 23.796V23.7339C124.421 18.33 120.819 15.3692 117.05 15.3692ZM119.825 23.796C119.825 26.5084 118.023 28.2683 115.87 28.2683C113.717 28.2683 111.957 26.4877 111.957 23.796V23.7339C111.957 21.0423 113.738 19.2617 115.87 19.2617C118.003 19.2617 119.825 21.0423 119.825 23.7339V23.796Z" fill="#081A32"/>
<path d="M132.579 9.82031H128.003V31.8502H132.579V9.82031Z" fill="#081A32"/>
<path d="M144.111 15.3691C139.411 15.3691 136.119 19.1788 136.119 23.796V23.8581C136.119 28.8065 139.701 32.2228 144.567 32.2228C147.486 32.2228 149.66 31.0841 151.172 29.1999L148.542 26.881C147.279 28.0612 146.161 28.5374 144.629 28.5374C142.579 28.5374 141.13 27.4607 140.674 25.3695H151.938C151.958 24.9555 152 24.6656 152 24.2308V24.1687C151.979 19.5722 149.515 15.3691 144.111 15.3691ZM140.612 22.4916C140.964 20.4004 142.206 19.0546 144.111 19.0546C146.037 19.0546 147.258 20.4418 147.527 22.4916H140.612Z" fill="#081A32"/>
<path d="M82.8456 26.777C84.5379 26.777 85.9099 25.4051 85.9099 23.7127C85.9099 22.0204 84.5379 20.6484 82.8456 20.6484C81.1532 20.6484 79.7812 22.0204 79.7812 23.7127C79.7812 25.4051 81.1532 26.777 82.8456 26.777Z" fill="#053AFA"/>
</svg>
