<svg width="110" height="24" viewBox="0 0 110 24" fill="none" xmlns="http://www.w3.org/2000/svg">
<path d="M4.81951 1.73193H0.181641V22.8508H4.81951V1.73193Z" fill="#081A32"/>
<path d="M28.8369 6.36914C26.6422 6.36914 24.9444 7.28015 23.5365 8.93653C22.6876 7.30085 21.0933 6.36914 18.9814 6.36914C16.6625 6.36914 15.2753 7.61143 14.2193 8.95724V6.65901H9.64355V22.8294H14.2193V13.8022C14.2193 11.6282 15.2753 10.5101 16.9937 10.5101C18.7122 10.5101 19.6854 11.6282 19.6854 13.8022V22.8294H24.2611V13.8022C24.2611 11.6282 25.3171 10.5101 27.0356 10.5101C28.7541 10.5101 29.7272 11.6282 29.7272 13.8022V22.8294H34.3029V12.3114C34.3029 8.41891 32.2532 6.36914 28.8369 6.36914Z" fill="#081A32"/>
<path d="M54.2623 6.49316C51.5086 6.49316 49.7694 7.01078 47.9888 7.79757L49.1275 11.2967C50.5976 10.7584 51.8399 10.4271 53.5998 10.4271C55.898 10.4271 57.0782 11.483 57.0782 13.3879V13.657C55.9394 13.2636 54.7592 12.9945 53.1236 12.9945C49.2932 12.9945 46.6016 14.6301 46.6016 18.15V18.2121C46.6016 21.4006 49.1068 23.1605 52.1504 23.1605C54.3866 23.1605 55.9187 22.353 57.0368 21.1107V22.8706H61.4676V13.4914C61.4676 9.10197 59.2729 6.49316 54.2623 6.49316ZM57.1196 17.1561C57.1196 18.8125 55.6703 19.9927 53.5377 19.9927C52.0676 19.9927 51.0324 19.268 51.0324 18.0257V17.9636C51.0324 16.5143 52.2333 15.7275 54.2002 15.7275C55.3183 15.7275 56.3328 15.976 57.1196 16.3279V17.1561Z" fill="#081A32"/>
<path d="M75.0504 6.36919C72.6693 6.36919 71.1372 7.48725 70.0191 8.9987V0.820312H65.4434V22.8502H70.0191V20.7383C71.0958 22.0427 72.6072 23.1608 75.0504 23.1608C78.8808 23.1608 82.4213 20.2 82.4213 14.796V14.7339C82.4213 9.32997 78.8186 6.36919 75.0504 6.36919ZM77.8248 14.796C77.8248 17.5084 76.0235 19.2683 73.8702 19.2683C71.7169 19.2683 69.957 17.4877 69.957 14.796V14.7339C69.957 12.0423 71.7376 10.2617 73.8702 10.2617C76.0028 10.2617 77.8248 12.0423 77.8248 14.7339V14.796Z" fill="#081A32"/>
<path d="M90.5787 0.820312H86.0029V22.8502H90.5787V0.820312Z" fill="#081A32"/>
<path d="M102.111 6.36914C97.4112 6.36914 94.1191 10.1788 94.1191 14.796V14.8581C94.1191 19.8065 97.7011 23.2228 102.567 23.2228C105.486 23.2228 107.66 22.0841 109.172 20.1999L106.542 17.881C105.279 19.0612 104.161 19.5374 102.629 19.5374C100.579 19.5374 99.1297 18.4607 98.6742 16.3695H109.938C109.958 15.9555 110 15.6656 110 15.2308V15.1687C109.979 10.5722 107.515 6.36914 102.111 6.36914ZM98.6121 13.4916C98.964 11.4004 100.206 10.0546 102.111 10.0546C104.037 10.0546 105.258 11.4418 105.527 13.4916H98.6121Z" fill="#081A32"/>
<path d="M40.8456 17.777C42.5379 17.777 43.9099 16.4051 43.9099 14.7127C43.9099 13.0204 42.5379 11.6484 40.8456 11.6484C39.1532 11.6484 37.7812 13.0204 37.7812 14.7127C37.7812 16.4051 39.1532 17.777 40.8456 17.777Z" fill="#053AFA"/>
</svg>
